<svg width="512" height="512" viewBox="0 0 512 512" fill="none" xmlns="http://www.w3.org/2000/svg">
<path d="M332.305 323.911L326.578 329.599L328.164 337.486L328.165 337.491L328.165 337.493C328.168 337.507 328.174 337.538 328.183 337.586C328.202 337.688 328.235 337.866 328.28 338.116C328.368 338.616 328.502 339.404 328.661 340.453C328.979 342.552 329.397 345.683 329.758 349.626C330.483 357.537 330.969 368.579 330.022 381.033C328.332 403.247 322.208 428.522 306.2 448.978C303.865 447.803 301.171 446.436 298.171 444.892C286.864 439.072 271.232 430.757 253.951 420.787C219.041 400.647 178.693 374.48 153.197 348.984C127.811 323.598 104.365 285.897 87.001 253.681C78.4032 237.728 71.4537 223.419 66.6587 213.108C65.5012 210.619 64.4704 208.366 63.5734 206.381C83.7921 190.257 109.071 184.199 131.392 182.633C143.823 181.761 154.866 182.322 162.788 183.103C166.735 183.493 169.872 183.933 171.976 184.267C173.026 184.434 173.817 184.574 174.318 184.666C174.441 184.689 174.546 184.709 174.634 184.726C174.725 184.743 174.798 184.757 174.85 184.767C174.876 184.773 174.897 184.777 174.914 184.78C174.929 184.783 174.94 184.785 174.947 184.787L174.951 184.788L183.045 186.474L188.795 180.497L188.795 180.497L188.796 180.497L188.799 180.493L188.815 180.476L188.883 180.406L189.16 180.119C189.407 179.862 189.779 179.478 190.271 178.969C191.256 177.952 192.723 176.44 194.643 174.469C198.484 170.528 204.137 164.754 211.366 157.444C225.826 142.823 246.586 122.063 271.761 97.5334L271.893 97.405L272.022 97.2735C300.044 68.5974 344.176 60.3511 384.322 60.3249C404.001 60.312 421.827 62.277 434.75 64.256C439.173 64.9333 443.002 65.6092 446.112 66.2019C446.707 69.3361 447.386 73.2 448.067 77.6658C450.047 90.6527 452.013 108.563 452 128.326C451.974 168.655 443.719 212.937 415.051 240.951L414.908 241.091L414.768 241.235C404.4 251.923 383.826 272.553 365.755 290.596C356.739 299.599 348.376 307.928 342.266 314.008C339.211 317.047 336.72 319.524 334.994 321.24C334.13 322.098 333.458 322.767 333.001 323.22L332.482 323.736L332.349 323.867L332.316 323.9L332.308 323.909L332.306 323.911C332.305 323.911 332.305 323.911 342.875 334.555L332.305 323.911Z" stroke="black" stroke-width="30"/>
<path d="M174.964 413.546C114.382 474.129 72.3969 447.405 67.0523 445.92C67.0523 445.92 38.8434 398.591 99.4258 338.008C99.4258 338.008 110.217 359.591 131.799 381.173C153.382 402.755 174.964 413.546 174.964 413.546Z" fill="black"/>
<path d="M324.511 130.945C319.27 133.117 314.51 136.301 310.501 140.314C304.469 146.353 300.363 154.044 298.701 162.416C297.04 170.788 297.897 179.464 301.166 187.349C304.434 195.233 309.967 201.972 317.064 206.713C324.161 211.453 332.505 213.984 341.04 213.984C349.575 213.984 357.919 211.453 365.016 206.713C372.113 201.972 377.646 195.233 380.914 187.349C384.183 179.464 385.04 170.788 383.379 162.416C381.717 154.044 377.611 146.353 371.579 140.314C367.57 136.301 362.81 133.117 357.57 130.945C352.329 128.773 346.713 127.654 341.04 127.654C335.368 127.654 329.751 128.773 324.511 130.945Z" stroke="black" stroke-width="30"/>
</svg>
